HIERARCHY
ROOT hip
{
  OFFSET 0 0 0
  CHANNELS 6 Xposition Yposition Zposition Zrotation Yrotation Xrotation
  JOINT abdomen
  {
    OFFSET 0 20.6881 -0.73152
    CHANNELS 3 Zrotation Xrotation Yrotation
    JOINT chest
    {
      OFFSET 0 11.7043 -0.48768
      CHANNELS 3 Zrotation Xrotation Yrotation
      JOINT neck
      {
        OFFSET 0 22.1894 -2.19456
        CHANNELS 3 Zrotation Xrotation Yrotation
        JOINT head
        {
          OFFSET -0.24384 7.07133 1.2192
          CHANNELS 3 Zrotation Xrotation Yrotation
          JOINT leftEye
          {
            OFFSET 4.14528 8.04674 8.04672
            CHANNELS 3 Zrotation Xrotation Yrotation
            End Site
            {
              OFFSET 1 0 0
            }
          }
          JOINT rightEye
          {
            OFFSET -3.6576 8.04674 8.04672
            CHANNELS 3 Zrotation Xrotation Yrotation
            End Site
            {
              OFFSET 1 0 0
            }
          }
        }
      }
      JOINT rCollar
      {
        OFFSET -2.68224 19.2634 -4.8768
        CHANNELS 3 Zrotation Xrotation Yrotation
        JOINT rShldr
        {
          OFFSET -8.77824 -1.95073 1.46304
          CHANNELS 3 Zrotation Xrotation Yrotation
          JOINT rForeArm
          {
            OFFSET -28.1742 -1.7115 0.48768
            CHANNELS 3 Zrotation Xrotation Yrotation
            JOINT rHand
            {
              OFFSET -22.5879 0.773209 7.07136
              CHANNELS 3 Zrotation Xrotation Yrotation
              JOINT rThumb1
              {
                OFFSET -1.2192 -0.487915 3.41376
                CHANNELS 3 Zrotation Xrotation Yrotation
                JOINT rThumb2
                {
                  OFFSET -3.37035 -0.52449 3.41376
                  CHANNELS 3 Zrotation Xrotation Yrotation
                  End Site
                  {
                    OFFSET -1.78271 -1.18214 1.43049
                  }
                }
              }
              JOINT rIndex1
              {
                OFFSET -7.75947 0.938293 5.60832
                CHANNELS 3 Zrotation Xrotation Yrotation
                JOINT rIndex2
                {
                  OFFSET -2.54057 -0.884171 1.56538
                  CHANNELS 3 Zrotation Xrotation Yrotation
                  End Site
                  {
                    OFFSET -1.62519 -0.234802 1.16502
                  }
                }
              }
              JOINT rMid1
              {
                OFFSET -8.24714 1.18213 3.41376
                CHANNELS 3 Zrotation Xrotation Yrotation
                JOINT rMid2
                {
                  OFFSET -3.10165 -0.590103 1.0647
                  CHANNELS 3 Zrotation Xrotation Yrotation
                  End Site
                  {
                    OFFSET -2.48547 -0.328903 0.83742
                  }
                }
              }
              JOINT rRing1
              {
                OFFSET -8.82822 0.546677 1.51678
                CHANNELS 3 Zrotation Xrotation Yrotation
                JOINT rRing2
                {
                  OFFSET -2.60934 -0.819778 -0.0198488
                  CHANNELS 3 Zrotation Xrotation Yrotation
                  End Site
                  {
                    OFFSET -2.33842 -0.294052 0.168128
                  }
                }
              }
              JOINT rPinky1
              {
                OFFSET -8.27202 -0.0477905 -0.4584
                CHANNELS 3 Zrotation Xrotation Yrotation
                JOINT rPinky2
                {
                  OFFSET -1.82734 -0.647385 -0.700984
                  CHANNELS 3 Zrotation Xrotation Yrotation
                  End Site
                  {
                    OFFSET -1.69225 -0.51767 -0.607171
                  }
                }
              }
            }
          }
        }
      }
      JOINT lCollar
      {
        OFFSET 2.68224 19.2634 -4.8768
        CHANNELS 3 Zrotation Xrotation Yrotation
        JOINT lShldr
        {
          OFFSET 8.77824 -1.95073 1.46304
          CHANNELS 3 Zrotation Xrotation Yrotation
          JOINT lForeArm
          {
            OFFSET 28.1742 -1.7115 0.48768
            CHANNELS 3 Zrotation Xrotation Yrotation
            JOINT lHand
            {
              OFFSET 22.5879 0.773209 7.07136
              CHANNELS 3 Zrotation Xrotation Yrotation
              JOINT lThumb1
              {
                OFFSET 1.2192 -0.487915 3.41376
                CHANNELS 3 Zrotation Xrotation Yrotation
                JOINT lThumb2
                {
                  OFFSET 3.37035 -0.52449 3.41376
                  CHANNELS 3 Zrotation Xrotation Yrotation
                  End Site
                  {
                    OFFSET 1.78271 -1.18214 1.43049
                  }
                }
              }
              JOINT lIndex1
              {
                OFFSET 7.75947 0.938293 5.60832
                CHANNELS 3 Zrotation Xrotation Yrotation
                JOINT lIndex2
                {
                  OFFSET 2.54057 -0.884171 1.56538
                  CHANNELS 3 Zrotation Xrotation Yrotation
                  End Site
                  {
                    OFFSET 1.62519 -0.234802 1.16502
                  }
                }
              }
              JOINT lMid1
              {
                OFFSET 8.24714 1.18213 3.41376
                CHANNELS 3 Zrotation Xrotation Yrotation
                JOINT lMid2
                {
                  OFFSET 3.10165 -0.590103 1.0647
                  CHANNELS 3 Zrotation Xrotation Yrotation
                  End Site
                  {
                    OFFSET 2.48547 -0.328903 0.83742
                  }
                }
              }
              JOINT lRing1
              {
                OFFSET 8.82822 0.546677 1.51678
                CHANNELS 3 Zrotation Xrotation Yrotation
                JOINT lRing2
                {
                  OFFSET 2.60934 -0.819778 -0.0198488
                  CHANNELS 3 Zrotation Xrotation Yrotation
                  End Site
                  {
                    OFFSET 2.33842 -0.294052 0.168128
                  }
                }
              }
              JOINT lPinky1
              {
                OFFSET 8.27202 -0.0477905 -0.4584
                CHANNELS 3 Zrotation Xrotation Yrotation
                JOINT lPinky2
                {
                  OFFSET 1.82734 -0.647385 -0.700984
                  CHANNELS 3 Zrotation Xrotation Yrotation
                  End Site
                  {
                    OFFSET 1.69225 -0.51767 -0.607171
                  }
                }
              }
            }
          }
        }
      }
    }
  }
  JOINT rButtock
  {
    OFFSET -8.77824 4.35084 1.2192
    CHANNELS 3 Zrotation Xrotation Yrotation
    JOINT rThigh
    {
      OFFSET 0 -1.70687 -2.19456
      CHANNELS 3 Zrotation Xrotation Yrotation
      JOINT rShin
      {
        OFFSET 0 -36.8199 0.73152
        CHANNELS 3 Zrotation Xrotation Yrotation
        JOINT rFoot
        {
          OFFSET 0.73152 -45.1104 -5.12064
          CHANNELS 3 Zrotation Xrotation Yrotation
          End Site
          {
            OFFSET -1.1221 -3.69964 12.103
          }
        }
      }
    }
  }
  JOINT lButtock
  {
    OFFSET 8.77824 4.35084 1.2192
    CHANNELS 3 Zrotation Xrotation Yrotation
    JOINT lThigh
    {
      OFFSET 0 -1.70687 -2.19456
      CHANNELS 3 Zrotation Xrotation Yrotation
      JOINT lShin
      {
        OFFSET 0 -36.8199 0.73152
        CHANNELS 3 Zrotation Xrotation Yrotation
        JOINT lFoot
        {
          OFFSET -0.73152 -45.1104 -5.12064
          CHANNELS 3 Zrotation Xrotation Yrotation
          End Site
          {
            OFFSET 1.1221 -3.69964 12.103
          }
        }
      }
    }
  }
}
MOTION
Frames:	6
Frame Time:	0.00833333
59.4995 85.5886 -40.2518 0.0 0.0 0.0 2.7226 0.000518353 0.0736206 0.750837 0.0131642 0.129929 1.12506e-14 -1.59028e-15 -1.49089e-16 3.36971e-14 -6.36111e-15 -5.48211e-16 -0.0 0.0 0.0 -0.0 0.0 0.0 5.51478e-15 -6.05672e-17 9.93923e-17 1.2129e-13 -1.41634e-15 -7.95139e-16 2.06234e-12 -6.56387e-13 -7.63333e-14 2.35762e-11 3.97743e-13 -2.8943e-13 5.56204e-11 -5.60252e-13 -7.69694e-13 9.60539e-11 -9.66889e-13 -1.33345e-12 5.56243e-11 -5.58982e-13 -7.76055e-13 7.73091 5.47488 0.417314 5.56217e-11 -5.59678e-13 -7.66514e-13 2.90554 0.965183 0.102902 5.56361e-11 -5.59281e-13 -7.68104e-13 10.2786 0.731801 0.0259123 5.56199e-11 -5.60175e-13 -7.60153e-13 2.22167 -0.733487 -0.20892 5.41875e-15 -6.30908e-17 -3.97569e-16 1.15732e-13 -1.40392e-15 -1.98785e-15 2.05479e-12 5.76674e-13 -5.08889e-14 2.35642e-11 -8.24087e-13 -2.8625e-13 5.55901e-11 -5.35182e-13 -7.63333e-13 9.60158e-11 -9.22361e-13 -1.31675e-12 5.55834e-11 -5.31948e-13 -7.60153e-13 -7.73091 5.47488 -0.417314 5.55889e-11 -5.34532e-13 -7.63333e-13 -2.90554 0.965183 -0.102902 5.5575e-11 -5.34035e-13 -7.63333e-13 -10.2786 0.731801 -0.0259123 5.55927e-11 -5.35526e-13 -7.72875e-13 -2.22167 -0.733487 0.20892 -2.03217e-16 0.0 -3.88251e-19 2.53281 -8.65201 -0.27446 0.00739619 10.0933 0.189527 -0.516711 -1.45224 0.0285975 2.03217e-16 0.0 3.88251e-19 1.60772 -1.93183 -0.00953021 0.00860064 -2.07865 0.0706454 0.459019 3.99948 -0.132499
59.402 84.8022 -42.3889 -0.2812 -4.4038 10.0178 0.864379 -3.09055 -0.427008 1.91526 1.28161 -0.0303924 -1.73289 3.21612 -2.78462 3.73224 -5.88683 -4.76794 -0.0 0.0 0.0 -0.0 0.0 0.0 1.70233e-14 9.39755e-14 -3.03135e-14 21.4641 6.48875 -1.06308 -8.15365 -5.03728 11.0211 0.151343 8.65797 1.16744 1.37335e-11 2.94846e-10 -1.73925e-10 1.97399e-11 5.13915e-10 -3.00519e-10 1.37392e-11 2.94847e-10 -1.7393e-10 7.73091 5.47488 0.417314 1.37369e-11 2.94843e-10 -1.73921e-10 2.90554 0.965183 0.102902 1.37474e-11 2.94847e-10 -1.73924e-10 10.2786 0.731801 0.0259123 1.37325e-11 2.94847e-10 -1.73914e-10 2.22167 -0.733487 -0.20892 1.69669e-14 9.39726e-14 -3.07153e-14 -20.8318 8.60841 -0.669428 5.49775 -2.76636 -8.32459 -0.0644665 7.39253 -1.04875 -1.34006e-10 -2.28008e-10 -4.33451e-11 -2.31476e-10 -3.84927e-10 -6.90199e-11 -1.34013e-10 -2.28007e-10 -4.3342e-11 -7.73091 5.47488 -0.417314 -1.34009e-10 -2.28012e-10 -4.33459e-11 -2.90554 0.965183 -0.102902 -1.34019e-10 -2.28008e-10 -4.33442e-11 -10.2786 0.731801 -0.0259123 -1.34003e-10 -2.28009e-10 -4.33527e-11 -2.22167 -0.733487 0.20892 -2.03217e-16 0.0 -3.88251e-19 0.793264 -9.68967 1.01593 0.00584218 10.8497 0.198474 -0.58954 -4.22886 -1.27694 2.03217e-16 0.0 3.88251e-19 2.36097 -2.89047 -1.4994 0.00445325 -1.6056 0.0340551 0.500698 1.1396 0.00940104
59.2664 84.7983 -42.409 -0.4349 -4.2965 10.1151 -1.15492 -6.35593 -0.955778 3.15063 2.62059 -0.198634 -3.22035 6.58977 -5.76194 6.59271 -11.9708 -9.98548 -0.0 0.0 0.0 -0.0 0.0 0.0 2.96384e-14 2.00598e-13 -6.78819e-14 44.4455 13.4779 -2.27176 -14.8319 -9.87165 23.1757 -0.0895067 17.7488 2.48687 3.6986e-14 5.98105e-10 -3.61455e-10 -8.29777e-12 1.04339e-09 -6.25447e-10 4.45147e-14 5.98106e-10 -3.61459e-10 7.73091 5.47488 0.417314 4.26551e-14 5.98097e-10 -3.6145e-10 2.90554 0.965183 0.102902 4.88238e-14 5.98106e-10 -3.61455e-10 10.2786 0.731801 0.0259123 3.53554e-14 5.98107e-10 -3.61443e-10 2.22167 -0.733487 -0.20892 2.96262e-14 2.00595e-13 -6.81831e-14 -42.5868 18.3782 -1.44753 10.6086 -5.59946 -17.4983 0.20018 14.5804 -2.15775 -3.60401e-10 -4.87114e-10 -8.6648e-11 -6.21896e-10 -8.2057e-10 -1.36196e-10 -3.60407e-10 -4.87114e-10 -8.66451e-11 -7.73091 5.47488 -0.417314 -3.60406e-10 -4.87122e-10 -8.66496e-11 -2.90554 0.965183 -0.102902 -3.60412e-10 -4.87116e-10 -8.66462e-11 -10.2786 0.731801 -0.0259123 -3.60397e-10 -4.87116e-10 -8.66534e-11 -2.22167 -0.733487 0.20892 -2.03217e-16 0.0 -3.88251e-19 -0.988884 -10.7899 2.40455 0.00406515 11.6526 0.208099 -0.807005 -7.15536 -2.68776 2.03217e-16 0.0 3.88251e-19 3.10698 -3.91097 -3.07211 0.000608026 -1.10387 -0.00457294 0.559599 -1.87468 0.154709
59.167 84.7925 -42.4273 -0.4635 -4.2789 10.2002 -3.01587 -9.27005 -1.44528 4.26543 3.81843 -0.351793 -4.25334 9.55661 -8.45894 8.1763 -17.1606 -14.9062 -0.0 0.0 0.0 -0.0 0.0 0.0 4.00404e-14 2.82048e-13 -9.11393e-14 65.1514 19.4386 -3.36055 -18.8865 -12.8735 33.8963 -0.704335 25.9283 3.85048 -7.00402e-11 8.85659e-10 -5.20236e-10 -1.32888e-10 1.54368e-09 -8.98891e-10 -7.0031e-11 8.85659e-10 -5.20238e-10 7.73091 5.47488 0.417314 -7.00327e-11 8.85648e-10 -5.20229e-10 2.90554 0.965183 0.102902 -7.00302e-11 8.85659e-10 -5.20236e-10 10.2786 0.731801 0.0259123 -7.00425e-11 8.85661e-10 -5.20223e-10 2.22167 -0.733487 -0.20892 4.00631e-14 2.82044e-13 -9.13509e-14 -61.8353 25.8103 -2.2058 14.1489 -7.60007 -25.1809 0.672998 22.1467 -3.36889 -5.13199e-10 -6.82955e-10 -1.28509e-10 -8.8646e-10 -1.15294e-09 -2.04426e-10 -5.13205e-10 -6.82956e-10 -1.28506e-10 -7.73091 5.47488 -0.417314 -5.13205e-10 -6.82966e-10 -1.28511e-10 -2.90554 0.965183 -0.102902 -5.13207e-10 -6.82957e-10 -1.28506e-10 -10.2786 0.731801 -0.0259123 -5.13194e-10 -6.82957e-10 -1.28512e-10 -2.22167 -0.733487 0.20892 -2.03217e-16 0.0 -3.88251e-19 -2.54292 -11.7464 3.62294 0.00200649 12.3625 0.216614 -1.11942 -9.76262 -3.93463 2.03217e-16 0.0 3.88251e-19 3.7176 -4.79604 -4.48919 -0.00202909 -0.659504 -0.039075 0.626534 -4.58012 0.293487
59.1621 84.7771 -42.5146 -0.1749 -4.2807 10.3377 -4.36752 -11.3085 -1.82071 5.06407 4.66351 -0.466508 -4.82185 11.5944 -10.3548 8.73747 -20.5952 -18.5083 -0.0 0.0 0.0 -0.0 0.0 0.0 4.49099e-14 3.00564e-13 -7.86193e-14 79.5477 22.86 -3.95645 -20.5961 -13.7804 40.1475 -1.43211 31.8704 5.01281 -2.81069e-10 1.13395e-09 -6.07142e-10 -4.98861e-10 1.97101e-09 -1.04363e-09 -2.81058e-10 1.13395e-09 -6.07146e-10 7.73091 5.47488 0.417314 -2.81061e-10 1.13394e-09 -6.07136e-10 2.90554 0.965183 0.102902 -2.8106e-10 1.13395e-09 -6.07143e-10 10.2786 0.731801 0.0259123 -2.81072e-10 1.13395e-09 -6.0713e-10 2.22167 -0.733487 -0.20892 4.49438e-14 3.00561e-13 -7.87684e-14 -75.4344 27.4169 -2.64537 15.6317 -8.34946 -28.899 1.31186 30.6708 -4.78116 -4.82004e-10 -7.20631e-10 -1.66763e-10 -8.36385e-10 -1.22711e-09 -2.75295e-10 -4.82009e-10 -7.20633e-10 -1.6676e-10 -7.73091 5.47488 -0.417314 -4.82011e-10 -7.20644e-10 -1.66766e-10 -2.90554 0.965183 -0.102902 -4.82011e-10 -7.20634e-10 -1.6676e-10 -10.2786 0.731801 -0.0259123 -4.81999e-10 -7.20633e-10 -1.66766e-10 -2.22167 -0.733487 0.20892 -2.03217e-16 0.0 -3.88251e-19 -3.63257 -12.3592 4.39494 -0.000224631 12.8397 0.222168 -1.38915 -11.5908 -4.72847 2.03217e-16 0.0 3.88251e-19 4.09742 -5.35281 -5.50862 -0.0029322 -0.358575 -0.0632903 0.68599 -6.51353 0.414889
59.1467 84.7659 -42.5125 -0.0964 -4.2763 10.4905 -4.95999 -12.1159 -2.03152 5.41883 5.01369 -0.528643 -5.05109 12.4171 -11.0545 8.91069 -21.9385 -19.8543 -0.0 0.0 0.0 -0.0 0.0 0.0 4.10428e-14 2.04036e-13 1.97037e-15 84.7963 23.5537 -3.63797 -20.3227 -13.0905 39.764 -1.81702 33.9207 5.50618 -8.89164e-10 1.39722e-09 -5.88088e-10 -1.54554e-09 2.4137e-09 -9.90621e-10 -8.89153e-10 1.39722e-09 -5.88095e-10 7.73091 5.47488 0.417314 -8.89157e-10 1.39721e-09 -5.88083e-10 2.90554 0.965183 0.102902 -8.89157e-10 1.39722e-09 -5.88089e-10 10.2786 0.731801 0.0259123 -8.8917e-10 1.39722e-09 -5.88076e-10 2.22167 -0.733487 -0.20892 4.10494e-14 2.04034e-13 1.84575e-15 -81.0617 21.6649 -2.68525 14.5882 -7.62156 -26.4041 2.40703 39.5615 -6.80306 -1.27984e-10 -5.05924e-10 -1.7338e-10 -2.30512e-10 -8.93288e-10 -3.13735e-10 -1.2799e-10 -5.05925e-10 -1.73377e-10 -7.73091 5.47488 -0.417314 -1.2799e-10 -5.05936e-10 -1.73384e-10 -2.90554 0.965183 -0.102902 -1.27991e-10 -5.05927e-10 -1.73379e-10 -10.2786 0.731801 -0.0259123 -1.2798e-10 -5.05926e-10 -1.73385e-10 -2.22167 -0.733487 0.20892 -2.03217e-16 0.0 -3.88251e-19 -4.12206 -12.4802 4.5188 -0.00270627 12.9846 0.223437 -1.47193 -12.341 -4.85463 2.03217e-16 0.0 3.88251e-19 4.19942 -5.44198 -5.97741 -0.00185901 -0.260375 -0.0731714 0.721965 -7.37375 0.508299
